HIERARCHY
ROOT hip
{
	OFFSET 0.000000 0.000000 0.000000 
	CHANNELS 6 Xposition Yposition Zposition Xrotation Zrotation Yrotation
	JOINT abdomen
	{
		OFFSET 0.000000 3.402643 0.000000 
		CHANNELS 3 Xrotation Zrotation Yrotation
		JOINT chest
		{
			OFFSET 0.000000 8.438565 -0.680529 
			CHANNELS 3 Xrotation Zrotation Yrotation
			JOINT neck
			{
				OFFSET 0.000000 10.207942 -0.272212 
				CHANNELS 3 Xrotation Zrotation Yrotation
				JOINT head
				{
					OFFSET 0.000000 3.130431 0.000000 
					CHANNELS 3 Xrotation Zrotation Yrotation
					End Site
					{
						OFFSET 0.000000 3.130435 0.000000 
					}
				}
			}
			JOINT lCollar
			{
				OFFSET 3.470700 6.669187 -0.816635 
				CHANNELS 3 Yrotation Zrotation Xrotation
				JOINT lShldr
				{
					OFFSET 3.198488 0.000000 0.000000 
					CHANNELS 3 Zrotation Yrotation Xrotation
					JOINT lForeArm
					{
						OFFSET 10.139888 0.000000 0.000000 
						CHANNELS 3 Yrotation Zrotation Xrotation
						JOINT lHand
						{
							OFFSET 8.370511 0.000000 0.000000 
							CHANNELS 3 Zrotation Yrotation Xrotation
							End Site
							{
								OFFSET 4.083176 0.000000 0.000000 
							}
						}
					}
				}
			}
			JOINT rCollar
			{
				OFFSET -3.470700 6.669187 -0.816635 
				CHANNELS 3 Yrotation Zrotation Xrotation
				JOINT rShldr
				{
					OFFSET -3.198488 0.000000 0.000000 
					CHANNELS 3 Zrotation Yrotation Xrotation
					JOINT rForeArm
					{
						OFFSET -10.139888 0.000000 0.000000 
						CHANNELS 3 Yrotation Zrotation Xrotation
						JOINT rHand
						{
							OFFSET -8.370511 0.000000 0.000000 
							CHANNELS 3 Zrotation Yrotation Xrotation
							End Site
							{
								OFFSET -4.083176 0.000000 0.000000 
							}
						}
					}
				}
			}
		}
	}
	JOINT lThigh
	{
		OFFSET 5.308129 -1.633274 1.361059 
		CHANNELS 3 Xrotation Zrotation Yrotation
		JOINT lShin
		{
			OFFSET -2.041588 -20.007561 0.000000 
			CHANNELS 3 Xrotation Zrotation Yrotation
			JOINT lFoot
			{
				OFFSET 0.000000 -19.190928 -1.224953 
				CHANNELS 3 Xrotation Yrotation Zrotation
				End Site
				{
					OFFSET 0.000000 -2.449906 4.627600 
				}
			}
		}
	}
	JOINT rThigh
	{
		OFFSET -5.308129 -1.633274 1.361059 
		CHANNELS 3 Xrotation Zrotation Yrotation
		JOINT rShin
		{
			OFFSET 2.041588 -20.007561 0.000000 
			CHANNELS 3 Xrotation Zrotation Yrotation
			JOINT rFoot
			{
				OFFSET 0.000000 -19.190928 -1.224953 
				CHANNELS 3 Xrotation Yrotation Zrotation
				End Site
				{
					OFFSET 0.000000 -2.449906 4.627600 
				}
			}
		}
	}
}
MOTION
Frames: 11
Frame Time: 0.033333
-0.019046 50.087273 3.795349 -0.823598 -1.522433 -2.080900 0.000000 0.000000 0.000000 -4.337804 0.576169 -0.185538 6.308580 -0.039063 0.019531 11.511109 2.089727 -0.605778 -0.858121 9.156282 -3.333916 -10.505398 4.548017 -13.918180 0.515066 -4.826045 19.256912 -0.275654 -3.606545 -3.374622 0.203230 -9.315039 -3.393831 8.823213 -3.884969 -26.394825 -0.670994 1.816539 30.738918 -1.407566 3.721138 -3.483267 13.051922 16.060465 10.094682 -3.555152 -4.067797 0.735517 -5.952757 0.625112 -12.239088 3.183440 -15.019471 -6.580485 15.331012 3.865137 2.036933 -7.273957 -0.788855 12.554749 
-0.022699 50.080231 3.769370 -0.807599 -1.473700 -2.012560 0.000000 0.000000 0.000000 -4.308670 0.517574 -0.224600 6.386679 -0.058594 0.039062 11.474541 2.089752 -0.537464 -0.871020 9.156546 -3.313071 -10.485578 4.460331 -14.167347 0.498287 -4.687260 19.263441 -0.448582 -3.489652 -3.375348 0.272339 -9.220839 -3.363316 8.675373 -3.977550 -26.406139 -0.677166 1.769434 31.041147 -1.397299 4.034776 -3.488965 12.954746 16.022598 10.040000 -3.564985 -4.058149 0.755297 -5.888556 0.630091 -12.234740 2.928105 -15.082915 -6.550495 15.775823 3.854485 2.077951 -7.350082 -0.790590 12.556520 
-0.033633 50.074177 3.721912 -0.552664 -1.502979 -2.012563 0.000000 0.000000 0.000000 -4.425505 0.517575 -0.185539 6.386719 0.000000 -0.009766 11.232098 1.874915 -0.546902 -0.889754 9.209207 -3.422177 -10.446909 4.426276 -14.491396 0.492767 -4.489912 19.659431 -1.076675 -3.653327 -3.323924 0.239825 -9.122729 -3.480576 8.592353 -3.964451 -26.394930 -0.671823 1.773325 31.138763 -1.503857 4.185006 -3.489487 12.653399 16.072105 9.975770 -3.564722 -4.057880 0.765049 -5.865657 0.616416 -12.250453 2.566369 -15.050801 -6.464659 15.881585 3.873421 2.097743 -7.407804 -0.789459 12.537804 
-0.026962 50.058727 3.688018 -0.703995 -1.434746 -1.914685 0.000000 0.000000 0.000000 -4.240003 0.458981 -0.214837 6.513672 0.000000 -0.058594 11.253382 1.787036 -0.517631 -0.973957 9.258455 -3.245496 -10.456403 4.398699 -14.458800 0.486448 -4.519270 19.454231 -0.879029 -3.837646 -3.342352 0.199287 -9.294105 -3.303949 8.789907 -3.941326 -26.425936 -0.662018 1.756495 31.148228 -1.668212 4.145648 -3.500870 12.721139 16.023199 9.972055 -3.556493 -4.079108 0.745841 -5.794725 0.597677 -12.224107 2.419338 -15.168327 -6.465852 16.486677 3.853933 2.187986 -7.543354 -0.829931 12.534919 
-0.017015 50.075069 3.647286 -0.737416 -1.571352 -1.953997 0.000000 0.000000 0.000000 -4.142969 0.624996 -0.214831 6.562487 -0.009766 0.078125 11.163815 1.972576 -0.517608 -0.937883 9.283550 -3.155677 -10.445850 4.323330 -14.436139 0.473934 -4.561071 19.249788 -0.823831 -3.775743 -3.347339 0.386499 -9.234597 -3.194702 8.784803 -4.052122 -26.620710 -0.676258 1.657502 31.303143 -1.368337 4.202830 -3.490140 12.721922 16.131159 10.041935 -3.565238 -4.058425 0.745545 -5.704845 0.598590 -12.220491 2.711997 -14.981668 -6.457978 15.814111 3.863942 2.072174 -7.317196 -0.805045 12.538149 
0.001965 50.069637 3.612034 -0.753666 -1.493398 -1.807299 0.000000 0.000000 0.000000 -4.094453 0.556634 -0.273425 6.630856 -0.019531 0.009766 11.115074 1.962811 -0.517609 -1.093758 9.290396 -3.096112 -10.427249 4.382631 -14.413633 0.484407 -4.588647 19.260303 -0.685332 -3.796993 -3.355869 0.373346 -9.233272 -3.154591 8.789826 -4.081049 -26.634138 -0.677407 1.601513 31.653948 -1.100883 4.160357 -3.469200 12.661691 16.042038 9.961214 -3.564973 -4.058157 0.755298 -5.663746 0.586899 -12.181597 2.761437 -15.099667 -6.521526 15.804083 3.863854 2.071453 -7.367830 -0.798016 12.585852 
-0.011503 50.035919 3.573014 -0.669283 -1.278554 -1.953728 0.000000 0.000000 0.000000 -4.151624 0.380857 -0.185543 6.601308 -0.166015 0.087890 11.270358 2.109293 -0.507828 -0.907626 9.243265 -3.176552 -10.427086 4.277906 -14.367949 0.492379 -4.633410 19.046183 -0.886512 -3.720529 -3.334857 0.427027 -9.354362 -3.205879 8.771379 -3.887791 -26.399033 -0.672730 1.772981 31.168045 -1.097681 3.612586 -3.470746 12.583621 15.855586 9.870787 -3.565207 -4.058455 0.745546 -5.698197 0.605457 -12.217247 1.971453 -15.385088 -6.444808 17.000889 3.835803 2.242024 -7.719074 -0.856353 12.561210 
-0.023318 50.024609 3.538774 -0.619403 -1.258974 -2.031832 0.000000 0.000000 0.000000 -4.180859 0.429686 -0.156246 6.620255 -0.234374 0.205076 11.233216 2.050713 -0.468799 -0.934424 9.059390 -3.194232 -10.339267 4.380562 -14.432586 0.492586 -4.573767 19.171947 -0.838233 -3.707940 -3.338203 0.494577 -9.485598 -3.226683 8.880914 -3.817689 -26.268257 -0.659765 1.899677 30.359280 -1.557523 3.427905 -3.505651 12.505789 15.875716 9.848623 -3.564952 -4.058175 0.755298 -5.675764 0.602216 -12.249708 1.531625 -15.415093 -6.358191 17.592115 3.825284 2.312977 -7.802795 -0.834578 12.531159 
-0.023813 50.026882 3.507420 -0.517482 -1.346768 -2.080880 0.000000 0.000000 0.000000 -4.248856 0.527343 -0.087887 6.601049 -0.136718 0.214843 11.203549 1.972582 -0.498088 -0.934713 9.089978 -3.243976 -10.262605 4.431529 -14.107401 0.479814 -4.741440 19.068769 -0.756655 -3.761873 -3.342260 0.416769 -9.228405 -3.313471 8.646666 -3.818508 -26.202480 -0.693689 1.905985 30.828697 -1.903805 4.307277 -3.522807 12.410172 15.956163 9.855676 -3.564953 -4.058177 0.755298 -5.677541 0.596179 -12.231234 1.610695 -15.300706 -6.373715 17.129885 3.843885 2.233467 -7.715252 -0.833777 12.539151 
-0.012102 50.033669 3.498071 -0.593312 -1.346683 -2.178510 0.000000 0.000000 0.000000 -4.199677 0.537109 -0.048826 6.621137 0.009766 0.253908 11.110670 1.728471 -0.410264 -0.914905 9.176170 -3.215086 -10.414050 4.533370 -14.013432 0.493236 -4.723224 19.420712 -0.809389 -3.520601 -3.353119 0.601168 -9.052133 -3.262049 8.357896 -3.749461 -25.734459 -0.649505 2.179514 29.504412 -1.077157 3.095059 -3.481146 12.492515 15.921286 9.876808 -3.565460 -4.058733 0.735794 -5.698474 0.601283 -12.208404 1.854074 -15.288836 -6.418865 16.740995 3.844208 2.156506 -7.647130 -0.819661 12.532385 
0.010152 50.048382 3.461656 -0.665462 -1.356593 -2.002548 0.000000 0.000000 0.000000 -4.122542 0.566404 -0.146477 6.611668 0.117187 0.166035 11.327172 1.699185 -0.361459 -0.988757 9.305368 -3.136350 -10.598679 4.538397 -13.967322 0.506023 -4.771909 19.490438 -0.742251 -3.673006 -3.344373 0.525859 -8.899601 -3.172275 8.345024 -3.710701 -25.934275 -0.655693 2.088971 29.796045 -1.182554 3.225771 -3.479552 12.468524 15.926764 9.854774 -3.566834 -4.070038 0.746120 -5.578267 0.569207 -12.164854 2.078286 -15.275911 -6.452595 16.482363 3.835675 2.136354 -7.503008 -0.813503 12.540979 
